<?xml version="1.0" encoding="UTF-8"?>
<svg width="167px" height="212px" viewBox="0 0 167 212" version="1.1" xmlns="http://www.w3.org/2000/svg" xmlns:xlink="http://www.w3.org/1999/xlink">
    <!-- Generator: Sketch 46 (44423) - http://www.bohemiancoding.com/sketch -->
    <title>Corner Ill</title>
    <desc>Created with Sketch.</desc>
    <defs>
        <polygon id="path-1" points="0.407155281 0.540509749 143.653354 0.540509749 143.653354 87.0736333 0.407155281 87.0736333"></polygon>
        <polygon id="path-3" points="0 9.09842256 0 0.540509749 5.33193559 0.540509749 5.33193559 9.09842256"></polygon>
        <polygon id="path-5" points="8.87363725e-16 17.3700017 8.87363725e-16 0.540628412 10.6063423 0.540628412 10.6063423 17.3700017 0 17.3700017"></polygon>
    </defs>
    <g id="Landing-Pages" stroke="none" stroke-width="1" fill="none" fill-rule="evenodd">
        <g id="Desktop-HD">
            <g id="Header" transform="translate(0.000000, -30.000000)">
                <g id="Corner-Ill" transform="translate(0.000000, 29.000000)">
                    <g id="Page-1">
                        <path d="M31.813084,153.548259 C28.770237,148.820727 24.9120021,144.579119 21.8709381,139.860487 C18.5208349,150.034649 19.0010342,162.233794 22.8265822,171.938643 C24.820479,176.997245 27.9405858,182.280713 32.4686036,185.489359 C36.9591801,188.671899 41.4984897,189.560092 46.6962904,189.904808 C45.43339,183.607958 43.6391801,177.420872 41.1080306,171.360755 C38.5257708,165.180195 35.4401338,159.186529 31.813084,153.548259" id="Fill-1" fill="#53C2BF"></path>
                        <path d="M58.0960313,154.597239 C58.8543658,155.860406 59.4956221,157.154426 60.0310918,158.466245 C65.8445936,142.203487 64.8657715,124.626537 66.0115936,107.530172 C56.8878071,117.126445 45.6310562,128.854498 45.7356541,142.252139 C50.7741808,145.547409 55.1417359,149.67688 58.0960313,154.597239" id="Fill-3" fill="#53C2BF"></path>
                        <path d="M61.5431847,163.509717 C63.4788395,173.32611 59.9070601,183.593422 52.4948751,190.774904 C61.2876331,189.321282 68.905448,182.085216 73.6658395,174.861015 C78.2657683,167.88304 81.4518431,159.997294 82.1358893,151.608416 C83.4445512,135.574678 77.7944836,121.190948 69.0011313,108.290505 C68.825811,126.653597 69.3987221,146.604399 61.5431847,163.509717" id="Fill-5" fill="#53C2BF"></path>
                        <path d="M52.3584224,153.392098 C44.9783299,145.01924 34.8668068,140.364686 24.2917249,137.484736 C36.5326466,152.038154 46.1158317,169.376591 50.2718139,187.949123 C59.5293192,178.610942 61.5137071,163.77926 52.3584224,153.392098" id="Fill-7" fill="#53C2BF"></path>
                        <path d="M52.3584224,153.392098 C61.5137071,163.77926 59.5293192,178.610942 50.2718139,187.949123 C46.1158317,169.376591 36.5326466,152.038154 24.2917249,137.484736 C34.8668068,140.364686 44.9783299,145.01924 52.3584224,153.392098 M66.0120096,107.530054 C64.8655932,124.626419 65.8444153,142.203962 60.0309135,158.466719 C59.4954438,157.154307 58.8547819,155.860881 58.095853,154.597121 C55.142152,149.676761 50.7745968,145.547291 45.7354758,142.252614 C45.6308779,128.85438 56.8882231,117.126327 66.0120096,107.530054 M82.136127,151.608594 C81.4514865,159.997472 78.266006,167.883218 73.6660772,174.861193 C68.9050915,182.0848 61.2872765,189.32146 52.4951128,190.775082 C59.9072979,183.5936 63.4790772,173.326288 61.5434224,163.509895 C69.3989598,146.604577 68.8260488,126.653775 69.0007747,108.29009 C77.794127,121.191126 83.444789,135.574856 82.136127,151.608594 M32.4687819,185.489834 C27.9407641,182.280594 24.8206573,176.997126 22.8267605,171.939118 C19.0012125,162.233675 18.5210132,150.03453 21.8705221,139.860369 C24.9121804,144.579001 28.7704153,148.820608 31.8132623,153.54814 C35.4403121,159.18641 38.5259491,165.180076 41.1076146,171.360636 C43.6393584,177.420753 45.4335683,183.607839 46.6964687,189.904689 C41.498668,189.560566 36.9587641,188.671781 32.4687819,185.489834 M20.324732,134.720483 C15.7248032,148.259926 13.9240559,161.835561 19.7256715,175.443235 C24.4527819,186.529321 34.8852302,195.588644 47.4500488,194.052552 C48.353394,199.578093 48.8858922,205.182544 49.1640274,210.860566 C49.2674367,212.98582 52.4029954,212.998873 52.4755007,210.860566 C52.6627071,205.369438 52.3120665,199.928148 51.5055932,194.569923 C69.5291128,192.924661 82.7987783,172.029895 85.6942374,155.79087 C89.0829705,136.778098 81.7195185,116.035221 68.8872623,101.919076 C68.0231413,100.968586 66.7019989,101.409419 66.0310274,102.286338 C57.7523441,113.117299 42.1268495,125.324157 42.7074865,140.406811 C36.1540737,136.7336 28.7704153,134.382887 21.9174722,133.508341 C21.1716181,133.414004 20.5386822,134.088603 20.324732,134.720483" id="Fill-9" fill="#40464A"></path>
                        <path d="M27.6108648,15.2013175 C38.425452,16.5712813 49.1764484,18.7629861 59.8127438,21.0425014 C66.2122313,22.4130585 72.6188505,23.7925153 78.9690107,25.3861588 C83.0221779,26.4031003 87.3249537,27.1981421 91.275306,28.6766825 C96.2746085,19.3248552 100.434157,9.38683287 106.384943,0.593314763 L61.9320391,0.593314763 C56.6617331,3.13744847 51.3652776,5.62581058 45.9927509,7.94270474 C40.0639537,10.4987047 33.908726,13.281351 27.6108648,15.2013175" id="Fill-11" fill="#1C9AC0"></path>
                        <path d="M127.891572,30.0990953 C129.464105,30.1151148 131.05744,30.0593432 132.59491,30.4349114 C133.864347,30.745215 133.864347,32.6794212 132.59491,32.9897248 C131.05744,33.3646997 129.464105,33.3095214 127.891572,33.3243543 C125.80734,33.3469003 125.80734,30.0771426 127.891572,30.0990953 M81.579084,42.8007777 C81.4750804,43.0030981 81.281931,43.1852457 81.1345431,43.3608669 C80.2014826,44.4656189 78.4459025,42.7153404 79.5525004,41.781463 C79.7290093,41.6331343 79.9102726,41.4414936 80.1135253,41.3370702 C81.0828384,40.8392791 82.0759238,41.8330813 81.579084,42.8007777 M72.2787886,55.2241955 C72.0107566,55.626463 71.8431623,56.0447499 71.5382833,56.4292178 C71.1412868,56.9305688 70.2938064,56.8409783 69.881358,56.4292178 C69.4273082,55.9759253 69.4326569,55.2283487 69.881358,54.774463 C70.1006569,54.5525632 70.258148,54.1497025 70.5541125,53.8957638 C71.0087566,53.5071426 71.660116,53.4495911 72.1076285,53.8957638 C72.4404399,54.2286134 72.5509808,54.8177749 72.2787886,55.2241955 M95.8566925,28.2093877 C102.546201,27.9204435 109.517411,29.7751454 116.082116,30.3809198 C117.815112,30.5405214 117.77886,32.843176 116.082116,33.0431231 C108.772152,33.9046162 101.182269,31.8078418 93.8455609,31.2880981 C93.7653295,31.4571928 93.6571658,31.6150145 93.5270128,31.7544435 C93.5680199,31.9567638 93.579906,32.1733237 93.5359274,32.4029365 C93.3677388,33.2905354 92.5196641,34.0903237 91.8873224,34.7049978 C91.2835075,35.2911928 90.6244221,35.8417889 89.8744078,36.23041 C89.0792263,36.6433571 88.0950555,36.4416301 87.626148,35.6430284 C87.1863616,34.8930786 87.4276498,33.8203655 88.2151053,33.3985187 C88.8599274,33.0538028 89.2812904,32.6539086 89.8143829,32.0861064 C89.9017459,31.9923627 89.9926747,31.8956524 90.0818206,31.8001287 C67.8143616,26.8079783 45.462511,22.4655075 23.0868883,18.0114936 C32.5696356,38.7620841 40.6129737,60.1546412 49.9786427,80.9663432 C51.3217744,78.7366663 52.8592441,76.6867638 54.5756,74.6629671 C56.9789737,71.8281092 59.2866641,68.6770145 61.9830306,66.1251677 C63.129447,65.039995 64.7899381,66.4022457 64.1088633,67.7627164 C61.4184399,73.1345883 56.375753,77.1590423 52.7160164,82.0147304 C89.0156356,71.3742234 124.706091,56.6024657 157.470184,37.6958975 C157.369152,37.50841 157.271685,37.317956 157.171248,37.1298752 C155.999276,37.5036635 154.580073,37.2497248 153.389084,37.0563042 C151.306636,36.7187081 149.272326,36.0761482 147.159568,35.9562986 C145.299984,35.8506886 145.271458,33.0585493 147.159568,33.0526162 C149.194472,33.0460897 151.1747,33.3510535 153.185831,33.6186384 C153.880575,33.7100089 154.640098,33.706449 155.393678,33.7337415 C150.416365,23.9369281 146.191443,13.686229 141.650351,3.70904791 C141.172529,2.65828747 140.684009,1.6229532 140.190735,0.593552089 L111.158885,0.593552089 C110.977027,0.855797214 110.795764,1.11448245 110.612717,1.37791421 C104.760586,9.80595042 101.296376,19.595644 95.8566925,28.2093877" id="Fill-13" fill="#1C9AC0"></path>
                        <g id="Group-17" transform="translate(17.829181, 0.052805)">
                            <mask id="mask-2" fill="white">
                                <use xlink:href="#path-1"></use>
                            </mask>
                            <g id="Clip-16"></g>
                            <path d="M1.76431637,13.5504786 C1.15990712,13.7878045 0.803917794,14.2049047 0.649398221,14.6641304 C0.403355516,15.0349521 0.315992527,15.4935844 0.523405338,15.9949354 C10.1339285,39.2469409 20.0838004,62.354771 29.7686117,85.5676178 C30.2030495,86.6071053 31.1081776,87.3107766 32.2932238,86.9992864 C70.5451384,76.9408212 108.268121,60.3042752 142.408626,40.4317905 C143.183601,39.9808713 143.414786,39.2558407 143.295331,38.5782752 C143.676875,38.0460719 143.807622,37.3340942 143.417163,36.5877042 C137.483612,25.2393727 132.547306,13.3042529 127.294829,1.62900501 C127.133772,1.27123621 126.970932,0.903974373 126.808686,0.540272423 L122.361494,0.540272423 C122.854768,1.57026685 123.343288,2.60560111 123.821704,3.65576825 C128.362202,13.6335426 132.587719,23.8842418 137.564437,33.6810552 C136.810857,33.6537627 136.051928,33.6573226 135.357185,33.5653588 C133.345459,33.2983671 131.365231,32.9934033 129.330327,32.9993365 C127.442217,33.005863 127.470743,35.7980022 129.330327,35.9036123 C131.443085,36.0234618 133.477395,36.6660217 135.559843,37.0030245 C136.750832,37.1964451 138.170035,37.4509772 139.342007,37.0765955 C139.442444,37.2652696 139.539911,37.4557237 139.640943,37.6432111 C106.87685,56.5497794 71.1863947,71.321537 34.8867754,81.962044 C38.5465121,77.106356 43.5891989,73.0819019 46.2796224,67.7100301 C46.9606972,66.3495593 45.300206,64.9867153 44.1537897,66.0724813 C41.4574231,68.6243281 39.1497327,71.7748295 36.7463591,74.6102808 C35.0300032,76.6334841 33.4925335,78.6839799 32.1494018,80.9136568 C22.7837327,60.1019549 14.7403947,38.7093978 5.25764733,17.9588072 C27.6332701,22.4128212 49.9851206,26.7546986 72.2525797,31.7474423 C72.1634338,31.842966 72.072505,31.9396763 71.985142,32.0328267 C71.4520495,32.6012223 71.0306865,33.0011164 70.3858644,33.3458323 C69.5984089,33.7670858 69.3571206,34.8397989 69.7969071,35.5903421 C70.2658146,36.3889437 71.2499854,36.5906708 72.0451669,36.1777237 C72.7951811,35.7891025 73.4542665,35.2379131 74.0580815,34.6517181 C74.6904231,34.037044 75.5384979,33.237849 75.7072808,32.3502501 C75.7506651,32.1206373 75.738779,31.9040774 75.6977719,31.7011638 C75.8279249,31.5623281 75.9360886,31.4045064 76.0163199,31.2354117 C83.3530281,31.7551554 90.9429107,33.8519298 98.2528751,32.9904368 C99.9496189,32.7904897 99.9858715,30.4878351 98.2528751,30.3276401 C91.6881705,29.7224591 84.7169605,27.8677571 78.0274516,28.1567014 C83.4671349,19.5429577 86.9313448,9.75326407 92.7834765,1.32522786 C92.9665228,1.0617961 93.1477861,0.803110864 93.3296438,0.540272423 L88.5561776,0.540272423 C82.6047968,9.33379053 78.4452488,19.2724061 73.4459463,28.6236401 C69.495594,27.1450997 65.1928181,26.3500579 61.1396509,25.3331164 C54.7900851,23.7400663 48.3828715,22.3600162 41.983384,20.9894591 C31.3470886,18.7099437 20.5960922,16.518239 9.78150498,15.1482752 C16.0793662,13.2283086 22.234594,10.4462557 28.1633911,7.8896624 C33.5359178,5.57336156 38.8323733,3.08440613 44.1026794,0.540272423 L34.6954089,0.540272423 C32.8762381,1.38989916 31.0558786,2.23596602 29.2260103,3.06126685 C20.2323769,7.11894652 10.913658,9.96092423 1.76431637,13.5504786" id="Fill-15" fill="#40464A" mask="url(#mask-2)"></path>
                        </g>
                        <path d="M70.5541125,53.8960011 C70.258148,54.1499398 70.1006569,54.5522072 69.881358,54.774107 C69.4326569,55.2285861 69.4273082,55.9755694 69.881358,56.4294552 C70.2938064,56.8412156 71.1412868,56.9302128 71.5382833,56.4294552 C71.8431623,56.0449872 72.0107566,55.6267003 72.2787886,55.2238396 C72.5509808,54.8180123 72.4404399,54.2288507 72.1076285,53.8960011 C71.660116,53.4498284 71.0087566,53.5073799 70.5541125,53.8960011" id="Fill-18" fill="#40464A"></path>
                        <path d="M80.1132281,41.3373075 C79.9099754,41.4417309 79.7293064,41.6333716 79.5522032,41.7817003 C78.4461996,42.7149844 80.2011854,44.4658563 81.1348402,43.3605109 C81.2822281,43.1848897 81.4753776,43.0033354 81.5787868,42.8004217 C82.076221,41.8333187 81.0825413,40.8389231 80.1132281,41.3373075" id="Fill-20" fill="#40464A"></path>
                        <path d="M127.891572,33.324651 C129.464105,33.3098181 131.05744,33.3644031 132.59491,32.9894281 C133.864347,32.6797178 133.864347,30.7449184 132.59491,30.4352081 C131.05744,30.0590465 129.464105,30.1154114 127.891572,30.0993919 C125.80734,30.076846 125.80734,33.3466036 127.891572,33.324651" id="Fill-22" fill="#40464A"></path>
                        <g id="Group-26" transform="translate(0.000000, 0.052805)">
                            <mask id="mask-4" fill="white">
                                <use xlink:href="#path-3"></use>
                            </mask>
                            <g id="Clip-25"></g>
                            <path d="M5.33193559,0.540450418 L-0.000178291815,0.540450418 L-0.000178291815,9.09842256 C1.33641601,7.00520808 2.64388932,4.90368719 3.92283594,2.80750613 C4.32042669,2.15604652 4.80062598,1.38889053 5.33193559,0.540450418" id="Fill-24" fill="#FF7D7D" mask="url(#mask-4)"></path>
                        </g>
                        <g id="Group-29" transform="translate(0.000000, 0.052805)">
                            <mask id="mask-6" fill="white">
                                <use xlink:href="#path-5"></use>
                            </mask>
                            <g id="Clip-28"></g>
                            <path d="M3.92277651,2.80768412 C2.64382989,4.90386518 1.33635658,7.00479276 -0.00023772242,9.09800724 L-0.00023772242,17.3700017 C2.24326762,14.0171799 4.3928726,10.6323192 6.475321,7.29314373 C7.58132456,5.52031922 9.05223203,3.19037214 10.6063423,0.540628412 L5.33187616,0.540628412 C4.80056655,1.38906852 4.32036726,2.1556312 3.92277651,2.80768412" id="Fill-27" fill="#40464A" mask="url(#mask-6)"></path>
                        </g>
                        <path d="M19.8744263,65.8517682 C15.677437,67.0122919 12.1971808,71.3013643 12.0278036,75.6284089 C11.8465402,80.2449911 13.7875438,84.7488435 16.0203516,88.6961666 C20.411679,96.4561304 26.3898036,103.074557 32.2068712,109.773674 C35.0613231,101.495746 33.5583231,90.9715287 31.6755616,82.7636123 C30.5927359,78.0420134 27.3650598,63.781693 19.8744263,65.8517682" id="Fill-30" fill="#FFFFFF"></path>
                        <path d="M16.020411,88.6958699 C13.7876032,84.7491401 11.8465996,80.2452877 12.027863,75.6287056 C12.1972402,71.301661 15.6774964,67.0119953 19.8744858,65.8514716 C27.3651192,63.7813964 30.5927954,78.0417167 31.675621,82.7633156 C33.5583826,90.9718253 35.0613826,101.495449 32.2069306,109.77397 C26.389863,103.074853 20.4117384,96.4558337 16.020411,88.6958699 M33.9375498,80.3390315 C32.3263861,73.8167223 28.7486637,61.7368337 19.8786459,62.9406694 C15.7280125,63.5037251 11.9607064,67.3371318 10.2342473,70.9237195 C8.08642527,75.3842599 9.38795552,80.7561318 11.0995569,85.1098755 C15.2454359,95.6548588 23.5995961,104.629931 31.3463754,112.682399 C31.363016,112.699012 31.3802509,112.710878 31.3968915,112.726898 C31.8051797,113.669082 33.4805285,114.006084 33.9345783,112.737577 C37.6614715,102.334396 36.5364502,90.8567223 33.9375498,80.3390315" id="Fill-32" fill="#40464A"></path>
                        <path d="M163.757704,76.5783652 C162.791362,72.3391312 158.660341,68.6700727 154.338547,68.3004376 C149.727921,67.9058833 145.131558,69.6336159 141.078391,71.6769919 C133.11053,75.6966994 126.211231,81.3521758 119.238238,86.8427106 C127.389145,90.0727162 137.989188,89.0617078 146.28986,87.5641813 C151.064515,86.7026883 165.48238,84.1449084 163.757704,76.5783652" id="Fill-34" fill="#E9CC26"></path>
                        <path d="M141.078628,71.6771699 C145.131201,69.6332006 149.727564,67.9060613 154.338785,68.3006156 C158.660579,68.6702507 162.791006,72.3393092 163.757942,76.5785432 C165.482023,84.1450864 151.064159,86.7028663 146.289504,87.5643593 C137.988831,89.0618858 127.389383,90.0728942 119.238475,86.8428886 C126.210874,81.3517604 133.110767,75.6962841 141.078628,71.6771699 M148.610863,89.9316852 C155.211226,88.6269861 167.464034,85.6188802 166.670636,76.7179721 C166.299194,72.5523092 162.638269,68.6174457 159.129486,66.7295181 C154.765497,64.3817716 149.329974,65.4301588 144.894668,66.9353983 C134.151991,70.5819109 124.783945,78.4973231 116.367977,85.8496797 C116.350148,85.8656992 116.338262,85.882312 116.321027,85.8983315 C115.35944,86.2620334 114.944614,87.9167883 116.192657,88.4282256 C126.430173,92.6271142 137.966248,92.0361727 148.610863,89.9316852" id="Fill-36" fill="#40464A"></path>
                        <path d="M129.066277,180.801045 C130.608501,181.441232 132.324263,179.097638 131.049476,177.680803 C129.979725,176.49002 129.090049,175.22626 128.444038,173.885962 C128.024458,173.019129 127.241757,172.485145 126.330092,172.678566 C125.356619,172.888006 124.437821,174.108455 124.7219,175.263045 C125.038665,176.538672 125.597312,177.612572 126.320583,178.647906 C127.045042,179.67968 127.972754,180.348939 129.066277,180.801045" id="Fill-38" fill="#40464A"></path>
                        <path d="M118.640663,162.080006 C118.168784,159.659282 117.280296,157.361967 116.75493,154.943616 C116.154681,152.171057 112.276834,152.939992 112.80636,155.792057 C113.314492,158.527238 113.75725,161.6546 115.47836,163.770953 C116.616457,165.16821 119.045385,164.149488 118.640663,162.080006" id="Fill-40" fill="#40464A"></path>
                        <path d="M110.565886,135.041347 C110.621751,133.739615 109.863416,132.573158 108.662918,132.466361 C107.553349,132.367278 106.383754,133.358707 106.32789,134.662219 C106.264299,136.173392 106.70052,137.651339 106.942402,139.11564 C107.266893,141.077732 109.911555,141.46754 110.51953,139.43603 C110.830947,138.398916 110.843427,137.494704 110.773893,136.422584 C110.752498,136.101601 110.697822,135.788924 110.646117,135.474467 C110.608676,135.246041 110.597979,134.267072 110.565886,135.041347" id="Fill-42" fill="#40464A"></path>
                        <path d="M112.789601,110.060423 C112.160825,108.906425 110.79095,107.927456 109.551227,108.783016 C104.233971,112.449108 99.1514658,116.503821 93.9382132,120.351467 C91.9033093,121.854333 94.0523199,125.631375 96.1591349,124.310063 C100.812551,121.394514 105.246669,118.102211 109.783007,114.969509 C112.701644,120.024551 116.052936,124.703431 119.595594,129.235169 C121.52174,131.702172 124.937811,128.482253 123.136469,125.90074 C119.533786,120.738902 115.838985,115.677927 112.789601,110.060423" id="Fill-44" fill="#40464A"></path>
                        <path d="M0,127.841888 L0,129.223125 C0.238911032,128.754406 0.468313167,128.280941 0.676914591,127.800356 C0.468313167,127.917832 0.223459075,127.946905 0,127.841888" id="Fill-46" fill="#E9CC26"></path>
                        <path d="M1.00639786,126.501412 C1.05513096,126.574983 1.08781779,126.648554 1.11218434,126.722718 C1.66429466,125.273844 2.07674306,123.798863 2.33526619,122.356515 C3.3378605,116.746724 2.51950107,111.400958 0.00023772242,106.817008 L0.00023772242,125.563975 C0.384753737,125.820287 0.742525979,126.105671 1.00639786,126.501412" id="Fill-48" fill="#F8BA32"></path>
                        <path d="M0,102.31719 L0,106.816889 C2.51926335,111.401433 3.33762278,116.746605 2.33562278,122.356396 C2.07650534,123.798745 1.66465125,125.273725 1.11194662,126.7226 C1.08758007,126.648435 1.05489324,126.574864 1.00616014,126.501293 C0.742288256,126.106146 0.38511032,125.820168 0,125.564449 L0,127.841591 C0.223459075,127.947201 0.468313167,127.918129 0.676914591,127.800653 C0.468313167,128.280644 0.238911032,128.754703 0,129.223421 L0,133.641243 C2.02539502,130.806979 3.46361566,127.508742 4.25641993,124.284669 C5.88481851,117.660903 5.24296797,110.872196 1.79658719,104.923622 C1.26052313,103.998644 0.653736655,103.136558 0,102.31719" id="Fill-50" fill="#40464A"></path>
                    </g>
                </g>
            </g>
        </g>
    </g>
</svg>