<?xml version="1.0" encoding="UTF-8"?>
<svg width="381px" height="84px" viewBox="0 0 381 84" version="1.1" xmlns="http://www.w3.org/2000/svg" xmlns:xlink="http://www.w3.org/1999/xlink">
    <!-- Generator: Sketch 46 (44423) - http://www.bohemiancoding.com/sketch -->
    <title>FBlogo-Blue</title>
    <desc>Created with Sketch.</desc>
    <defs>
        <polygon id="path-1" points="3.27652239e-20 0.509932134 3.27652239e-20 73.3726852 72.758597 73.3726852 72.758597 0.509932134"></polygon>
        <polygon id="path-3" points="12.2197872 0.343839728 12.2197872 12.2196889 0.362196733 12.2196889 0.362196733 0.343839728 12.2197872 0.343839728"></polygon>
        <polygon id="path-5" points="0.774405513 83.1256839 283.488561 83.1256839 283.488561 0.516260473 0.774405513 0.516260473"></polygon>
    </defs>
    <g id="Landing-Pages" stroke="none" stroke-width="1" fill="none" fill-rule="evenodd">
        <g id="Desktop-HD" transform="translate(-530.000000, -31.000000)">
            <g id="Header" transform="translate(0.000000, -30.000000)">
                <g id="FBlogo-Blue" transform="translate(530.000000, 61.000000)">
                    <g id="logo_FB_20170710MP">
                        <path d="M124.899744,18.7021683 L103.967758,18.7021683 C102.81454,18.7021683 101.878911,19.6391619 101.878911,20.794061 L101.878911,36.7665333 L124.624132,36.7665333 L124.624132,47.0952535 L101.878911,47.0952535 L101.878911,75.4641269 L90.8762003,75.4641269 L90.8762003,20.8061669 C90.8762003,13.6854997 96.642288,7.91100429 103.75017,7.91100429 L124.899744,7.91100429 L124.899744,18.7021683 Z" id="Fill-1" fill="#FFFFFF"></path>
                        <path d="M149.540158,75.4648533 C139.057242,75.4648533 130.559213,66.9520122 130.559213,56.45381 L130.559213,15.5456863 L140.454642,11.7977119 L140.454642,56.45381 C140.454642,61.2186767 144.310788,65.0804462 149.066299,65.0804462 C149.228282,65.0804462 149.383011,65.063498 149.540158,65.0562345 L149.540158,75.4648533 Z" id="Fill-3" fill="#FFFFFF"></path>
                        <path d="M194.303372,75.7580572 L184.886638,75.7580572 L184.886638,71.4314227 C183.141097,73.1819301 181.318191,74.4312549 179.420339,75.1818183 C177.522486,75.9323816 175.116927,76.3100845 172.208498,76.3100845 C169.329081,76.3100845 166.834069,75.9469087 164.721046,75.2278205 C162.61044,74.5063113 160.831052,73.4264685 159.392552,71.9834499 C156.880617,69.3782688 155.625859,65.9571526 155.625859,61.7249438 C155.625859,58.9962828 156.254447,56.5969013 157.509206,54.5267991 C158.763964,52.456697 160.625552,50.8466175 163.091552,49.6941396 C165.555134,48.546504 168.550599,47.9702651 172.070692,47.9702651 L184.702897,47.9702651 L184.702897,44.5806242 C184.702897,41.525105 183.878479,39.2782573 182.222391,37.8425022 C180.568721,36.4067472 177.921398,35.687659 174.275586,35.687659 C171.611339,35.687659 169.536998,36.024202 168.052563,36.6972878 C166.565711,37.3703737 165.14897,38.5615903 163.80234,40.2709378 L157.509206,34.3463297 C159.68267,31.7580967 162.071305,29.9543235 164.675111,28.9350101 C167.278916,27.9156966 170.600763,27.4072505 174.643068,27.4072505 C187.751549,27.4072505 194.303372,32.8815206 194.303372,43.8300608 L194.303372,75.7580572 Z" id="Fill-5" fill="#FFFFFF"></path>
                        <path d="M220.854937,76.3088739 C210.369602,76.3088739 201.871574,67.7960328 201.871574,57.2978306 L201.871574,33.1781142 L197.957404,33.1781142 L197.957404,22.7694953 L201.871574,22.7694953 L201.871574,12.6441536 L211.771837,8.89617921 L211.771837,22.7694953 L219.766995,22.7694953 L219.766995,33.2362223 L211.771837,33.2362223 L211.771837,57.2978306 L211.767002,57.2978306 C211.767002,62.0626973 215.623149,65.9244668 220.381078,65.9244668 C220.540642,65.9244668 220.697789,65.9099397 220.854937,65.900255 L220.854937,76.3088739 Z" id="Fill-7" fill="#FFFFFF"></path>
                        <path d="M263.487237,70.2440799 C259.950219,74.2680679 255.501749,76.309116 250.265126,76.309116 L227.945411,76.309116 L227.945411,8.61798654 L250.678544,8.61798654 C254.832061,8.61798654 258.422267,10.1481673 261.345202,13.1601054 C264.27539,16.1817282 265.759825,19.8740156 265.759825,24.1376997 C265.759825,25.8543107 265.631689,27.2489058 265.373001,28.2803251 C265.119148,29.2996386 264.565507,30.5513846 263.731419,32.0113513 C263.095578,33.1565657 262.002802,34.3768365 260.474849,35.6431095 C259.244267,36.6866347 258.415014,37.4250921 257.941155,37.902063 L257.230367,38.6138876 L259.843843,40.4249244 C261.504766,41.5943505 262.653149,42.4829206 263.259978,43.0688443 C263.854719,43.6450833 264.609025,44.5893404 265.496301,45.8774039 C266.685783,47.5988573 267.558554,49.2379908 268.080766,50.746381 C268.598142,52.237823 268.864083,53.9471705 268.864083,55.8211577 C268.864083,61.3341666 267.055683,66.1886166 263.487237,70.2440799" id="Fill-9" fill="#FFFFFF"></path>
                        <path d="M297.641091,76.2924099 C284.095016,76.2924099 273.1189,65.2978674 273.1189,51.7344613 C273.1189,38.1734764 284.095016,27.1789339 297.641091,27.1789339 C311.184749,27.1789339 322.163283,38.1734764 322.163283,51.7344613 C322.163283,65.2978674 311.184749,76.2924099 297.641091,76.2924099" id="Fill-11" fill="#FFFFFF"></path>
                        <polygon id="Fill-13" fill="#FFFFFF" points="353.447632 75.542815 347.497804 75.598502 338.917575 61.4540146 330.400205 75.6009232 319.353977 75.6009232 333.15874 51.3649905 319.27903 28.6592386 331.657382 28.6592386 338.997358 40.6464616 341.605998 36.9687012 347.715392 28.3469074 358.62865 28.3469074 350.273262 42.1330613 344.860151 51.0599228 352.130015 63.274736 359.399879 75.4895493"></polygon>
                        <g id="Group-17" transform="translate(0.000000, 6.745661)">
                            <mask id="mask-2" fill="white">
                                <use xlink:href="#path-1"></use>
                            </mask>
                            <g id="Clip-16"></g>
                            <path d="M72.758597,66.799203 C72.758597,70.4140129 69.8042326,73.3726852 66.1946859,73.3726852 L6.56584518,73.3726852 C2.95388086,73.3726852 -0.00048352936,70.4140129 -0.00048352936,66.799203 L-0.00048352936,7.08341438 C-0.00048352936,3.46618326 2.95388086,0.509932134 6.56584518,0.509932134 L66.1946859,0.509932134 C69.8042326,0.509932134 72.758597,3.46618326 72.758597,7.08341438 L72.758597,66.799203 Z" id="Fill-15" fill="#FFFFFF" mask="url(#mask-2)"></path>
                        </g>
                        <path d="M2.65530148,8.58457437 L26.9647401,30.1717448 C32.3367513,34.9414538 40.4213622,34.9414538 45.7933734,30.1717448 L70.102812,8.58457437 C69.007618,7.76137585 67.6634063,7.25535088 66.1934771,7.25535088 L6.56463636,7.25535088 C5.09712475,7.25535088 3.75049548,7.76137585 2.65530148,8.58457437" id="Fill-18" fill="#008BC6"></path>
                        <path d="M70.103779,78.7891226 L45.7919228,57.2043733 C40.4199116,52.4322431 32.3377183,52.4322431 26.9657071,57.2043733 L2.65626854,78.7891226 C3.75146254,79.6123211 5.09567416,80.1183461 6.56560342,80.1183461 L66.1944441,80.1183461 C67.6619558,80.1183461 69.0061674,79.6123211 70.103779,78.7891226" id="Fill-20" fill="#008BC6"></path>
                        <path d="M49.8760535,34.2586833 C45.1132893,39.6385277 45.1132893,47.7349272 49.8760535,53.1147716 L71.4293748,77.459657 C72.2513747,76.362866 72.7590805,75.0142732 72.7590805,73.5446217 L72.7590805,13.8288331 C72.7590805,12.3591817 72.2513747,11.0105888 71.4293748,9.91137667 L49.8760535,34.2586833 Z" id="Fill-22" fill="#008BC6"></path>
                        <path d="M22.883027,53.1138031 C27.6457912,47.7339587 27.6457912,39.6399804 22.883027,34.2577148 L1.32728809,9.91282938 C0.507705828,11.0120415 0,12.3582132 0,13.8278647 L0,73.5436532 C0,75.0157259 0.505288182,76.3643187 1.32728809,77.4611097 L22.883027,53.1138031 Z" id="Fill-24" fill="#008BC6"></path>
                        <path d="M22.883027,53.1138031 C27.6457912,47.7339587 27.6457912,39.6399804 22.883027,34.2577148 L1.32728809,9.91282938 C1.05651165,10.2784264 0.8316705,10.6779198 0.635841109,11.0943614 L19.6457979,34.2577148 C24.060421,39.6399804 24.060421,47.7339587 19.6457979,53.1138031 L0.635841109,76.2771565 C0.8316705,76.6935981 1.05651165,77.0955127 1.32728809,77.4611097 L22.883027,53.1138031 Z" id="Fill-26" fill="#FFDB00"></path>
                        <path d="M26.9649818,30.1707763 C32.336993,34.9404853 40.4191863,34.9404853 45.7936151,30.1707763 L70.1030537,8.5836059 C69.7404067,8.31243462 69.3390773,8.08726562 68.9232421,7.89115068 L45.7936151,26.9288269 C40.4191863,31.3498871 32.336993,31.3498871 26.9649818,26.9288269 L3.83535489,7.89115068 C3.41951964,8.08726562 3.01819027,8.31243462 2.65554325,8.5836059 L26.9649818,30.1707763 Z" id="Fill-28" fill="#FFDB00"></path>
                        <path d="M49.8760535,34.2586833 C45.1132893,39.6385277 45.1132893,47.7349272 49.8760535,53.1147716 L71.4293748,77.459657 C71.7025689,77.0964812 71.92741,76.6945666 72.1232394,76.278125 L53.1132826,53.1147716 C48.6986595,47.7349272 48.6986595,39.6385277 53.1132826,34.2586833 L72.1232394,11.0953298 C71.92741,10.6788882 71.7025689,10.2769737 71.4317924,9.91137667 L49.8760535,34.2586833 Z" id="Fill-30" fill="#FFDB00"></path>
                        <path d="M26.9649818,57.2043733 L2.65554325,78.7891226 C3.01819027,79.062715 3.41951964,79.2854629 3.83535489,79.4815778 L26.9649818,60.4439016 C32.336993,56.0228414 40.4191863,56.0228414 45.7936151,60.4439016 L68.9232421,79.4815778 C69.3390773,79.2854629 69.7404067,79.062715 70.1030537,78.7891226 L45.7936151,57.2043733 C40.4191863,52.4322431 32.336993,52.4322431 26.9649818,57.2043733" id="Fill-32" fill="#FFDB00"></path>
                        <g id="Group-36" transform="translate(368.288808, 64.853791)">
                            <mask id="mask-4" fill="white">
                                <use xlink:href="#path-3"></use>
                            </mask>
                            <g id="Clip-35"></g>
                            <path d="M7.88349593,4.91743382 C7.88349593,4.60994496 7.78679006,4.37993361 7.58854302,4.22739977 C7.39271363,4.07244476 7.14369601,3.99496725 6.8487431,3.99496725 L5.14188446,3.99496725 L5.14188446,5.83747921 L6.8487431,5.83747921 C7.14369601,5.83747921 7.39271363,5.76484405 7.58854302,5.61473138 C7.78679006,5.46946106 7.88349593,5.23460736 7.88349593,4.91743382 M8.98594288,4.88353741 C8.98594288,5.39924707 8.8578076,5.81568867 8.60878997,6.13286221 C8.35493706,6.45245693 8.02371945,6.67278359 7.60546655,6.79142102 L8.93758994,9.40628688 L7.6441489,9.40628688 L6.38455492,6.90521611 L5.14188446,6.90521611 L5.14188446,9.40628688 L4.03943752,9.40628688 L4.03943752,2.92723036 L6.87291957,2.92723036 C7.15578425,2.92723036 7.42897834,2.96354794 7.6852489,3.04344662 C7.93910181,3.11850295 8.16394296,3.23714038 8.35251941,3.39451657 C8.54593116,3.5567351 8.69824291,3.75769238 8.81428995,4.00465194 C8.92791935,4.25161149 8.98594288,4.54457332 8.98594288,4.88353741 M11.2682015,6.28055371 C11.2682015,5.5784138 11.1424838,4.92469733 10.8910486,4.31698314 C10.6396133,3.70684777 10.2866369,3.17903225 9.8393722,2.72869424 C9.38968989,2.27835623 8.86022524,1.92970745 8.25339589,1.67548438 C7.64656655,1.42610366 6.99380191,1.29778153 6.29268434,1.29778153 C5.57947853,1.29778153 4.9218786,1.42610366 4.31988455,1.67548438 C3.71789049,1.92970745 3.19326114,2.27835623 2.74357883,2.72869424 C2.29389653,3.17903225 1.94575539,3.70684777 1.69190247,4.31698314 C1.44046721,4.92469733 1.31474957,5.5784138 1.31474957,6.28055371 C1.31474957,6.99479948 1.44046721,7.65335829 1.69190247,8.25623014 C1.94575539,8.85910199 2.29389653,9.38691751 2.74357883,9.83483435 C3.19326114,10.2851724 3.71789049,10.6338211 4.31988455,10.8880442 C4.9218786,11.1398461 5.57947853,11.2657471 6.29268434,11.2657471 C6.99380191,11.2657471 7.64656655,11.1398461 8.25339589,10.8880442 C8.86022524,10.6338211 9.38968989,10.2851724 9.8393722,9.83483435 C10.2866369,9.38691751 10.6396133,8.85910199 10.8910486,8.25623014 C11.1424838,7.65335829 11.2682015,6.99479948 11.2682015,6.28055371 M12.2207543,6.28055371 C12.2207543,7.12554277 12.0684425,7.91000253 11.7686543,8.63393299 C11.4664485,9.35786344 11.0530309,9.98494702 10.5211486,10.5176049 C9.9892663,11.0478416 9.36309578,11.4667043 8.64021938,11.7669297 C7.91734299,12.0695762 7.13402543,12.2196889 6.29268434,12.2196889 C5.44650796,12.2196889 4.66560804,12.0695762 3.94273165,11.7669297 C3.21985525,11.4667043 2.59368473,11.0478416 2.06422008,10.5176049 C1.52992014,9.98494702 1.11408489,9.35786344 0.814296685,8.63393299 C0.512090835,7.91000253 0.362196733,7.12554277 0.362196733,6.28055371 C0.362196733,5.43798582 0.512090835,4.65594723 0.814296685,3.9295956 C1.11408489,3.20566515 1.52992014,2.57858157 2.06422008,2.04592371 C2.59368473,1.51568702 3.21985525,1.09924542 3.94273165,0.79659891 C4.66560804,0.496373571 5.44650796,0.343839728 6.29268434,0.343839728 C7.13402543,0.343839728 7.91734299,0.496373571 8.64021938,0.79659891 C9.36309578,1.09924542 9.9892663,1.51568702 10.5211486,2.04592371 C11.0530309,2.57858157 11.4664485,3.20566515 11.7686543,3.9295956 C12.0684425,4.65594723 12.2207543,5.43798582 12.2207543,6.28055371" id="Fill-34" fill="#008BC6" mask="url(#mask-4)"></path>
                        </g>
                        <path d="M252.02469,32.4665317 C253.47286,30.8637158 254.205407,28.9437263 254.205407,26.7598291 C254.205407,24.7381504 253.600995,22.9367983 252.406678,21.4090387 C251.166425,19.8207498 249.541766,19.0169207 247.57622,19.0169207 L238.601915,19.0169207 L238.601915,34.919179 L246.611578,34.919179 C248.734272,34.919179 250.557178,34.0935593 252.02469,32.4665317" id="Fill-37" fill="#008BC6"></path>
                        <path d="M167.133132,56.4358933 C165.677709,57.6319523 164.952415,59.3316151 164.952415,61.5397241 C164.952415,66.0503677 167.860844,68.3020578 173.68012,68.3020578 C175.730284,68.3020578 177.446813,68.1277334 178.822455,67.7766634 C180.200513,67.4231723 181.472195,66.6919783 182.637501,65.590345 C184.01556,64.2102769 184.704589,61.847213 184.704589,58.5035743 L184.704589,54.6418048 L173.493961,54.6418048 C170.708832,54.6418048 168.588556,55.2398343 167.133132,56.4358933" id="Fill-39" fill="#008BC6"></path>
                        <g id="Group-43" transform="translate(83.949554, 0.289814)">
                            <mask id="mask-6" fill="white">
                                <use xlink:href="#path-5"></use>
                            </mask>
                            <g id="Clip-42"></g>
                            <path d="M270.441147,75.2530007 L264.491319,75.3086877 L255.91109,61.1642003 L247.39372,75.3111089 L236.34991,75.3111089 L250.152255,51.0751762 L236.272545,28.3694243 L248.650897,28.3694243 L255.990873,40.3566473 L258.599513,36.6788869 L264.708907,28.0546719 L275.622165,28.0546719 L267.266777,41.843247 L261.853666,50.7701085 L269.12353,62.9849217 L276.393394,75.199735 L270.441147,75.2530007 Z M214.634606,76.0035641 C201.090949,76.0035641 190.112415,65.0090216 190.112415,51.4456155 C190.112415,37.8822094 201.090949,26.8876669 214.634606,26.8876669 C228.178264,26.8876669 239.156798,37.8822094 239.156798,51.4456155 C239.156798,65.0090216 228.178264,76.0035641 214.634606,76.0035641 L214.634606,76.0035641 Z M180.48051,69.9554762 C176.943493,73.9794642 172.495023,76.0180911 167.2584,76.0180911 L144.938684,76.0180911 L144.938684,8.32938283 L167.671817,8.32938283 C171.825334,8.32938283 175.41554,9.85714242 178.338475,12.8715017 C181.268663,15.8931245 182.753098,19.5854119 182.753098,23.8466748 C182.753098,25.565707 182.624963,26.9603021 182.366274,27.9917214 C182.112422,29.0110349 181.561198,30.2627808 180.724692,31.7227476 C180.088851,32.8655408 178.996075,34.0882328 177.468122,35.3545058 C176.23754,36.3956098 175.408287,37.1340673 174.934428,37.6110382 L174.22364,38.3228628 L176.837116,40.1363207 C178.49804,41.3033256 179.646422,42.1943169 180.253251,42.7802406 C180.847992,43.3540584 181.602298,44.2983155 182.489574,45.586379 C183.681474,47.3102536 184.551827,48.9493871 185.074039,50.4577773 C185.593833,51.9467981 185.857356,53.6537245 185.857356,55.5301328 C185.857356,61.0455629 184.048957,65.9000129 180.48051,69.9554762 L180.48051,69.9554762 Z M137.840473,38.2357006 L137.840473,58.4936475 L137.28925,58.5251227 C136.530109,58.4839628 134.625003,58.4064853 134.310709,56.2928021 L134.310709,38.2357006 L137.840473,38.2357006 Z M137.847726,76.0180911 C127.362392,76.0180911 118.866781,67.5076712 118.866781,57.009469 L118.866781,32.8873314 L114.952611,32.8873314 L114.952611,22.4787126 L118.866781,22.4787126 L118.866781,12.3533709 L128.764627,8.60539645 L128.764627,22.4787126 L136.759785,22.4787126 L136.759785,32.9454395 L128.764627,32.9454395 L128.764627,57.009469 L128.759792,57.009469 C128.759792,61.7743357 132.615939,65.633684 137.373867,65.633684 C137.533432,65.633684 137.690579,65.619157 137.847726,65.6118934 L137.847726,76.0180911 Z M86.2188788,43.1506799 C86.0399729,42.0296772 86.9151611,41.1411071 86.9151611,41.1411071 C87.5099022,40.7948795 88.1360727,40.5551834 88.791255,40.4195978 C89.4464373,40.2840122 90.3627254,40.2137982 91.5377017,40.2137982 C93.1454369,40.2137982 94.3155779,40.3590685 95.0457073,40.6496091 C95.7734189,40.9401498 96.1384836,41.3953301 96.1384836,42.012729 L96.1384836,42.6979207 L90.5658077,42.6979207 C89.0112608,42.6979207 87.7081492,42.8359275 86.600867,43.0465695 C86.3325082,43.0974141 86.2454729,43.1288894 86.2188788,43.1506799 L86.2188788,43.1506799 Z M111.297129,75.4660639 L101.880395,75.4660639 L101.880395,71.1418505 C100.134854,72.8899368 98.3119481,74.1416827 96.4140953,74.8922461 C94.513825,75.6428094 92.110684,76.0180911 89.2022549,76.0180911 C86.3228376,76.0180911 83.8278261,75.6573365 81.7148028,74.9382484 C79.6017795,74.2167391 77.8248091,73.1368963 76.3863092,71.6938778 C73.8743742,69.0886966 72.6196155,65.6675804 72.6196155,61.4353716 C72.6196155,58.7067106 73.2482037,56.3073291 74.5029624,54.2372269 C75.7577211,52.1671248 77.6193091,50.5570454 80.0853088,49.4045674 C82.5488909,48.2569319 85.5419377,47.6806929 89.0644491,47.6806929 L101.696654,47.6806929 L101.696654,44.291052 C101.696654,41.2355328 100.869818,38.9886851 99.216148,37.55293 C97.5624776,36.117175 94.9127367,35.3980869 91.269343,35.3980869 C88.6050962,35.3980869 86.5307552,35.7346298 85.0463201,36.4077156 C83.5594673,37.0783803 82.1427263,38.269597 80.796097,39.9813656 L74.5029624,34.0567575 C76.6764269,31.4685245 79.0650619,29.6623302 81.6688675,28.6454379 C84.2726731,27.6261244 87.5945198,27.1176783 91.6368253,27.1176783 C104.742889,27.1176783 111.297129,32.5919484 111.297129,43.5404886 L111.297129,75.4660639 Z M66.5343985,75.1755232 C56.051482,75.1755232 47.5534535,66.6626821 47.5534535,56.1644799 L47.5534535,15.2563562 L57.4464642,11.5083818 L57.4464642,56.1644799 C57.4464642,60.9293466 61.3050285,64.7911161 66.0605398,64.7911161 C66.2201044,64.7911161 66.3772515,64.7741679 66.5343985,64.7669044 L66.5343985,75.1755232 Z M24.1627207,30.2288844 L40.4576601,30.2288844 L40.4576601,24.6601886 L24.1627207,24.6601886 L24.1627207,30.2288844 Z M41.8937423,18.4111434 L20.9617563,18.4111434 C19.8085388,18.4111434 18.8729095,19.348137 18.8729095,20.5030361 L18.8729095,36.4755084 L41.6181306,36.4755084 L41.6181306,46.8042286 L18.8729095,46.8042286 L18.8729095,75.1755232 L7.87019888,75.1755232 L7.87019888,20.515142 C7.87019888,13.3944749 13.6338689,7.62240057 20.7441681,7.62240057 L41.8937423,7.62240057 L41.8937423,18.4111434 Z M282.488281,71.5607133 L270.136524,50.8015837 L281.68804,31.742117 C283.017746,29.5509562 283.063681,26.8077683 281.806505,24.5706052 C280.549329,22.3334422 278.18487,20.9485318 275.622165,20.9485318 L264.708907,20.9485318 C262.409725,20.9485318 260.253184,22.0646921 258.92106,23.9435217 L256.423631,27.4687482 L254.699849,24.6553463 C253.411243,22.5465054 251.119314,21.2632842 248.650897,21.2632842 L224.174641,21.2632842 C221.162253,20.3069212 217.958871,19.7815268 214.634606,19.7815268 C201.854925,19.7815268 190.847379,27.4275883 185.869445,38.3785497 C185.642186,38.129169 185.417345,37.8943153 185.197339,37.6812521 C185.871862,36.877423 186.427921,36.0711727 186.877603,35.2625012 C188.054997,33.2093473 188.831062,31.3934682 189.251733,29.7131748 C189.65548,28.0934106 189.851309,26.1758423 189.851309,23.8466748 C189.851309,17.7598481 187.629492,12.2516816 183.430039,7.92020474 C179.182234,3.53788325 173.732858,1.22324272 167.671817,1.22324272 L144.938684,1.22324272 C141.019679,1.22324272 137.840473,4.40466286 137.840473,8.32938283 L137.840473,15.3725725 L134.346974,15.3725725 L134.346974,7.59334651 C134.346974,5.62251242 133.382333,3.77757929 131.764927,2.65899778 C130.145104,1.5379951 128.080433,1.28377203 126.238186,1.97864842 L114.302264,6.48687086 C112.779147,7.06068865 111.76857,8.52065542 111.76857,10.1525254 L111.76857,15.3725725 C109.609612,15.3725725 107.8544,17.1279222 107.8544,19.2924501 L107.8544,23.6481387 C103.995836,21.4497144 98.7567951,20.0115382 91.6368253,20.0115382 C86.6540552,20.0115382 82.5488909,20.670097 79.0868207,22.0259534 C75.3757329,23.4762355 72.0055332,25.9869909 69.07051,29.4831634 C66.6480279,32.3716217 66.8994632,36.652254 69.6434923,39.2356446 L72.972592,42.3686413 C73.4198566,42.7899253 73.6616213,43.3831124 73.6374448,43.9980901 C73.6108507,44.6130679 73.3183155,45.1868856 72.8372037,45.5670097 C71.0674863,46.9688683 69.597557,48.6346347 68.4370866,50.5473607 C67.1291396,52.704625 66.2950515,55.0943219 65.867128,57.6535008 C65.1249104,57.5542327 64.5422576,56.9368338 64.5422576,56.1644799 L64.5422576,11.5083818 C64.5422576,9.17437189 63.3987106,6.98805349 61.4815167,5.66125118 C59.5619051,4.33444887 57.1176642,4.03422353 54.9369468,4.86226439 L48.9411827,7.13332381 C48.6849122,3.44103636 45.6459302,0.516260473 41.8937423,0.516260473 L20.881974,0.516260473 C9.7777222,0.516260473 0.774405513,9.53270536 0.774405513,20.6531488 L0.774405513,75.1755232 C0.774405513,79.1002432 3.95119341,82.2792422 7.87019888,82.2792422 L18.8729095,82.2792422 C22.7919149,82.2792422 25.9687028,79.1002432 25.9687028,75.1755232 L25.9687028,53.9103687 L40.4576601,53.9103687 L40.4576601,56.1644799 C40.4576601,70.5656116 52.1542353,82.2792422 66.5343985,82.2792422 C69.392057,82.2792422 71.8411333,80.5771582 72.965339,78.1390379 C74.8414329,79.6498493 77.0028092,80.8386448 79.4277089,81.6642644 C82.2708616,82.6351545 85.5588612,83.1266524 89.2022549,83.1266524 C91.4530841,83.1266524 93.4863251,82.9450645 95.3406602,82.572204 L111.297129,82.572204 C115.216135,82.572204 118.392922,79.3907838 118.392922,75.4660639 L118.392922,74.3402189 C123.17261,79.7152209 130.108839,83.1242312 137.840473,83.1242312 L137.840473,83.1266524 L137.847726,83.1266524 L144.94352,83.1266524 L167.2584,83.1266524 C174.521011,83.1266524 180.935028,80.194613 185.806586,74.6501289 C187.07585,73.2095315 188.166209,71.6672449 189.101838,70.0474807 C194.858255,77.9453441 204.144437,83.1097042 214.634606,83.1097042 C216.875765,83.1097042 219.061318,82.867587 221.174341,82.4196701 L247.39372,82.4196701 C249.881479,82.4196701 252.187914,81.1146584 253.471685,78.9816058 L255.935267,74.8922461 L258.425443,78.998554 C259.723719,81.1388701 262.054331,82.4390395 264.554177,82.4148278 L276.45867,82.3034539 C278.999617,82.2816633 281.335064,80.8991741 282.580152,78.6813804 C283.822822,76.4611656 283.788975,73.7470317 282.488281,71.5607133 L282.488281,71.5607133 Z" id="Fill-41" fill="#008BC6" mask="url(#mask-6)"></path>
                        </g>
                        <path d="M297.641091,36.4730873 C289.172075,36.4730873 282.305958,43.3467949 282.305958,51.8281607 C282.305958,60.3095266 289.172075,67.1856553 297.641091,67.1856553 C306.110108,67.1856553 312.973807,60.3095266 312.973807,51.8281607 C312.973807,43.3467949 306.110108,36.4730873 297.641091,36.4730873" id="Fill-44" fill="#008BC6"></path>
                        <path d="M247.432611,45.3846954 L238.603365,45.3846954 L238.603365,65.2915724 L246.388188,65.2915724 C249.487611,65.2915724 252.22197,64.371527 254.518734,62.5556479 C256.871104,60.6937666 258.065422,58.2629098 258.065422,55.3357127 C258.065422,52.5271531 257.004075,50.1350351 254.910393,48.2271514 C252.833634,46.3410584 250.319282,45.3846954 247.432611,45.3846954" id="Fill-46" fill="#008BC6"></path>
                    </g>
                </g>
            </g>
        </g>
    </g>
</svg>