<?xml version="1.0" encoding="UTF-8"?>
<svg width="133px" height="198px" viewBox="0 0 133 198" version="1.1" xmlns="http://www.w3.org/2000/svg" xmlns:xlink="http://www.w3.org/1999/xlink">
    <!-- Generator: Sketch 46 (44423) - http://www.bohemiancoding.com/sketch -->
    <title>illustration-like</title>
    <desc>Created with Sketch.</desc>
    <defs>
        <polygon id="path-1" points="-2.71050543e-20 105.036651 -2.71050543e-20 197.082458 132.576728 197.082458 132.576728 0.235115915 -2.71050543e-20 0.235115915 -2.71050543e-20 105.036651 -0.000176512564 197.08249 57.600978 197.08249 57.600978 105.036651"></polygon>
    </defs>
    <g id="Landing-Pages" stroke="none" stroke-width="1" fill="none" fill-rule="evenodd">
        <g id="Desktop-HD" transform="translate(-1233.000000, -319.000000)">
            <g id="Header" transform="translate(0.000000, -30.000000)">
                <g id="illustration-like" transform="translate(1233.000000, 349.000000)">
                    <g id="Page-1" transform="translate(-47.000000, 0.000000)">
                        <path d="M63.89377,122.868268 C57.4023974,126.433534 53.4286421,134.21755 51.6909577,141.20484 C50.0125462,147.953062 49.6929663,155.025309 51.4731297,161.802673 C54.877371,174.7543 63.2802953,184.492841 73.7380141,192.199308 C68.8025557,177.729801 62.8421696,162.218572 64.3318957,146.775506 C60.1022789,139.601013 60.0657273,130.552014 63.89377,122.868268 Z" id="Fill-1" fill="#53C2BF"></path>
                        <path d="M74.3276315,152.188902 C82.4262881,156.729702 91.6392756,157.597062 100.727296,156.94259 C87.1093427,148.888388 74.8067543,137.913019 66.4166725,124.473873 C61.7385573,134.361583 64.2788958,146.556493 74.3276315,152.188902 Z" id="Fill-3" fill="#53C2BF"></path>
                        <path d="M66.9107617,150.320027 C66.8440796,164.694204 72.46661,178.229175 76.2916891,191.970614 C80.7939613,181.91842 86.3809279,169.603977 82.5978338,159.111683 C77.7369605,157.912888 73.1714638,155.874393 69.4960488,152.824802 C68.5526215,152.042399 67.6931642,151.202699 66.9107617,150.320027 Z" id="Fill-5" fill="#53C2BF"></path>
                        <path d="M101.96857,154.407981 C101.783342,145.493828 98.0382813,136.045725 92.3574658,129.478779 C89.3972774,126.056756 85.491192,122.766615 81.0556019,121.495705 C76.6550815,120.234673 72.8512419,120.789369 68.680898,121.9526 C71.409922,126.549215 74.5261958,130.913184 78.1843228,134.973873 C81.917035,139.116556 85.9910603,142.972753 90.3920746,146.40021 C94.0842836,149.273959 98.2808063,151.541148 101.96857,154.407981 Z" id="Fill-7" fill="#53C2BF"></path>
                        <g id="Group-11" transform="translate(47.000000, 0.258825)">
                            <path d="M29.2916397,191.711789 C25.4665606,177.97035 19.8440302,164.435379 19.9107123,150.061202 C20.6931148,150.943874 21.5525721,151.783574 22.4959994,152.565977 C26.1719084,155.615568 30.7369111,157.654063 35.5982784,158.852858 C39.3808785,169.345152 33.7939119,181.659595 29.2916397,191.711789 M4.47308029,161.543848 C2.69291693,154.766484 3.01249676,147.694236 4.69090827,140.946015 C6.4285927,133.958725 10.402348,126.174709 16.8937206,122.609443 C13.0656779,130.293189 13.1027235,139.342188 17.3318463,146.516681 C15.8421203,161.959746 21.8025063,177.470976 26.7379647,191.940483 C16.2802459,184.234016 7.87732165,174.495475 4.47308029,161.543848 M34.0557006,121.236781 C38.4912908,122.508185 42.3973762,125.798326 45.3570707,129.219855 C51.0383801,135.786801 54.7834407,145.234904 54.9686686,154.149057 C51.2809051,151.282224 47.0838884,149.015529 43.3921734,146.141286 C38.9911591,142.713829 34.9171337,138.857632 31.1844216,134.714949 C27.5262946,130.654754 24.4100208,126.290291 21.6809968,121.693676 C25.8513407,120.530445 29.6551803,119.976243 34.0557006,121.236781 M19.4167713,124.215245 C27.8068531,137.654392 40.1089476,148.629267 53.7273948,156.683963 C44.6393744,157.337941 35.4263869,156.47058 27.3272364,151.930274 C17.2789946,146.297865 14.7386561,134.102462 19.4167713,124.215245 Z M56.6861014,159.150704 C57.2976004,159.018822 57.6073014,158.31545 57.6008802,157.76026 C57.4675161,145.858752 55.1291994,134.700131 46.8206179,125.613592 C40.0531322,118.211392 29.3706703,113.972391 19.9433124,118.644085 C17.7102051,114.553759 15.743826,110.299445 13.9572414,105.916707 C13.2884453,104.275835 10.8266434,105.131341 11.3600996,106.829016 C12.7312798,111.193479 14.5079856,115.370738 16.6220531,119.355854 C2.94482684,125.618037 -1.68784579,145.687354 0.528961415,159.240107 C3.12313954,175.105492 14.6260375,189.366063 28.586292,196.911999 C29.5267556,197.420759 30.4415344,196.710965 30.7240686,195.836196 C34.2231466,185.047043 43.102724,171.152482 38.481412,159.465838 C44.6339411,160.544606 51.0734499,160.354438 56.6861014,159.150704 Z" id="Fill-9" fill="#40464A"></path>
                            <mask id="mask-2" fill="white">
                                <use xlink:href="#path-1"></use>
                            </mask>
                            <g id="Clip-10"></g>
                        </g>
                        <path d="M119.555833,121.147476 C116.634666,122.578917 114.27511,125.038743 112.462346,127.730722 C120.346139,136.532751 129.359574,143.411373 138.541937,150.733554 C140.79332,148.077633 143.308468,145.665226 145.621593,143.063144 C138.375973,134.134173 128.052112,128.729965 119.555833,121.147476" id="Fill-12" fill="#FF7D7D"></path>
                        <path d="M110.924412,87.599547 C113.241489,89.2705494 115.806031,90.5567718 118.088532,92.2761804 C122.01882,95.2334051 126.462314,99.2891547 126.885621,104.554566 C127.309422,109.838253 124.716232,114.46154 121.453258,118.416032 C130.166871,125.893311 140.709548,131.650687 147.779819,140.834038 C154.943939,137.000562 159.71541,131.198237 164.319434,124.634749 C160.126368,123.721946 157.806328,120.260902 158.031071,115.942869 C157.970316,115.95176 157.910549,115.969048 157.848806,115.975963 C155.988625,116.196755 154.033112,115.793205 152.570553,114.554895 C150.390297,112.713483 149.930438,110.332688 149.967978,107.779507 C149.167299,108.058089 148.328094,108.239366 147.445915,108.298639 C138.023497,108.928413 139.690547,96.4727031 146.716858,94.0059618 C147.938374,93.5762331 149.153469,95.2393324 147.963071,96.0642139 C145.5803,97.7139768 140.521356,103.584466 145.976935,105.056904 C148.598773,105.765215 151.167267,103.879348 152.785911,101.9757 C155.958988,98.2449634 159.397312,92.0988556 158.154556,86.9776753 C156.555175,80.3855387 148.905017,82.9807047 145.117477,85.7097288 C141.189658,88.5395167 138.209712,91.9432642 135.664928,96.0266744 C135.197166,96.7769708 134.453291,96.6984341 133.955399,96.2593206 C133.631373,96.230672 133.314757,96.0943443 133.072726,95.8192192 C127.52725,89.5382654 121.930899,81.5991518 112.83053,80.5742242 C111.031597,80.3717084 106.945717,80.4744481 107.682183,83.5665188 C108.095612,85.3027214 109.53051,86.594871 110.924412,87.599547" id="Fill-14" fill="#E9CC26"></path>
                        <path d="M160.882888,114.921152 C160.478845,118.160418 161.933501,120.233488 165.498273,121.177903 C167.041839,121.587874 167.987242,121.617017 169.306064,120.692359 C172.11807,118.716595 173.968373,115.622055 175.092089,112.418353 C176.89448,107.27544 178.264178,97.0735823 170.305307,97.5260323 C170.018821,100.786043 169.036866,104.100387 167.722983,106.626401 C166.223872,109.509535 163.962117,113.134074 160.882888,114.921152" id="Fill-16" fill="#E9CC26"></path>
                        <path d="M152.840887,106.268986 C152.766796,108.969361 152.871017,112.628476 156.086079,112.947562 C157.514063,113.089817 158.831897,112.524254 159.938325,111.6401 C162.635737,109.487011 164.535434,106.359871 165.766335,103.167036 C168.028585,97.3024746 168.922124,89.035878 161.474482,88.1536994 C161.534248,89.0269871 161.49177,89.940778 161.320866,90.8851931 C160.408063,95.9308004 157.546663,102.86672 152.840887,106.268986" id="Fill-18" fill="#E9CC26"></path>
                        <g id="Group-22" transform="translate(104.297156, 77.313621)" fill="#40464A">
                            <path d="M8.53357166,3.2607515 C17.6339406,4.28518513 23.2302921,12.2242988 28.7752738,18.5052525 C29.0177988,18.7808716 29.3339211,18.9167054 29.6584403,18.9458479 C30.1558389,19.3849615 30.899714,19.4634981 31.3679701,18.7127078 C33.9127541,14.6297915 36.8927002,11.226044 40.820025,8.39576212 C44.6075646,5.66723205 52.2577228,3.0715721 53.8575977,9.66420261 C55.0998593,14.7853829 51.661536,20.9309968 48.488953,24.6617332 C46.8698144,26.5658757 44.3018151,28.4517424 41.6794824,27.7429371 C36.224398,26.2709929 41.2833417,20.4000102 43.6661131,18.7502473 C44.8565109,17.9253658 43.6409221,16.2622665 42.4198999,16.6919951 C35.3935892,19.1592304 33.7265384,31.6144466 43.1489568,30.9851658 C44.0306415,30.9258929 44.8698473,30.7446165 45.6710196,30.4660338 C45.6329861,33.0192148 46.0933391,35.3995165 48.2735947,37.2414225 C49.736154,38.4797326 51.6916664,38.8832824 53.5518482,38.6624908 C53.6135908,38.6550816 53.6733577,38.6382876 53.7341124,38.6289028 C53.5093693,42.9474289 55.8294102,46.4084735 60.0219814,47.3207825 C55.4184513,53.8842705 50.6469812,59.6865954 43.482861,63.5205655 C36.4120956,54.3367205 25.8699128,48.5798381 17.1562997,41.1020653 C20.41878,37.1475737 23.0119702,32.524286 22.5886628,27.241093 C22.1653553,21.975682 17.7218621,17.9199325 13.7915736,14.9622138 C11.5085783,13.2432991 8.94453057,11.9565828 6.62745335,10.2860743 C5.23305791,9.28090439 3.79865325,7.98875474 3.38473069,6.25304607 C2.64875861,3.16097542 6.7341446,3.05823569 8.53357166,3.2607515 M57.0237595,13.5717698 C57.1946631,12.6273547 57.237142,11.7130699 57.1768812,10.8402761 C64.6250175,11.7224547 63.7314783,19.9885574 61.4692285,25.8531188 C60.2383275,29.0464474 58.3386304,32.1730939 55.6412186,34.3266767 C54.5347908,35.2108311 53.2169562,35.7763935 51.7889728,35.6341385 C48.5739108,35.3150526 48.4696893,31.6554437 48.5437804,28.9555623 C53.2495563,25.5532967 56.1109565,18.6173771 57.0237595,13.5717698 M63.4257288,29.3126816 C64.7396118,26.7866673 65.7215665,23.4723232 66.0080523,20.2123126 C73.9674176,19.7598627 72.5972252,29.962214 70.7953285,35.1046337 C69.6711188,38.3083351 67.8208158,41.4033694 65.0088097,43.3786394 C63.6899872,44.303297 62.7445841,44.2741544 61.2010185,43.8641834 C57.6362463,42.9197682 56.1815901,40.8466979 56.5856338,37.6074328 C59.665356,35.8203543 61.9266179,32.1958152 63.4257288,29.3126816 M34.2446825,73.419637 C25.0623193,66.0979496 16.048884,59.2193272 8.16509168,50.4172986 C9.97785514,47.7253202 12.3374113,45.265494 15.2585784,43.834053 C23.7548575,51.4160473 34.0787183,56.8207497 41.3248327,65.7497212 C39.0112131,68.3513084 36.4960655,70.7637163 34.2446825,73.419637 M6.17105187,14.0286653 C9.48687779,16.2657241 12.8856858,18.1026906 15.7401708,20.9813788 C21.967285,27.2652962 18.785811,34.0164817 14.198581,40.2109958 C14.0355804,40.4317874 13.9525984,40.652579 13.9204922,40.8644797 C10.3339866,42.7715859 7.26216753,46.0054176 5.10611507,49.3622407 C4.78258372,49.8675423 4.78554737,50.3837107 4.97373889,50.8183787 C4.99892988,50.966561 5.04881792,51.1211646 5.14266671,51.2782378 C11.5387087,62.1222185 23.574569,69.9432803 33.4845073,77.2941102 C34.2466582,77.8596726 35.3846983,77.6616023 35.930997,76.8910543 C38.5113448,73.2482395 41.7683918,70.1734568 44.5226068,66.6669696 C44.6791861,66.4684053 44.763156,66.2446501 44.7918046,66.0159554 C52.8939188,63.6791205 58.9195051,54.7664491 63.1871553,48.1441822 C63.3284224,47.9248724 63.4044893,47.7050686 63.4341258,47.4902043 C67.8934251,46.8742599 71.0645263,42.2648025 72.8935898,38.5913633 C76.341298,31.6677923 77.5242867,15.7495557 66.0633737,17.2733637 C65.767997,12.004989 63.1827098,7.61928687 56.5624186,8.05197919 C54.9660013,3.85249282 50.5378202,1.3403089 45.4240491,2.64925255 C39.8706704,4.06883898 32.6433257,9.51256272 29.9755504,15.2971058 C25.7335851,8.71040254 19.3009915,3.24099386 11.8637219,0.808828385 C6.87639961,-0.82117691 -1.47070932,0.219062833 0.261047818,7.4725864 C0.955528862,10.3858504 3.84212006,12.4579329 6.17105187,14.0286653" id="Fill-20"></path>
                        </g>
                        <path d="M114.811085,48.9698539 C117.988114,43.8318797 118.835222,38.3382679 117.28079,32.4746943 C114.236138,20.9900721 106.611171,7.03623892 94.2122637,4.09383239 C96.2912613,11.2218949 95.1907608,19.2854817 94.7980777,26.5138143 C94.3752642,34.2563395 92.7605711,46.6710525 99.6322783,52.284198 C104.924856,56.6081575 111.428083,54.4407444 114.811085,48.9698539 Z" id="Fill-23" fill="#FF7D7D"></path>
                        <path d="M131.307331,23.9394432 C132.072446,19.144758 129.612126,13.5237094 125.868053,10.488442 C120.035104,5.75846295 112.097472,5.91603013 104.760966,5.62855647 C112.543007,11.4051964 117.91017,21.2499345 120.331469,30.1566786 C125.037244,30.839305 130.442935,29.3560002 131.307331,23.9394432 Z" id="Fill-25" fill="#1C9AC0"></path>
                        <path d="M94.2124119,4.09407936 C106.611319,7.03599195 114.236286,20.9898252 117.280938,32.4749413 C118.835371,38.3380209 117.988262,43.8316327 114.811233,48.9701009 C111.428231,54.4409914 104.92451,56.6079106 99.6324264,52.284445 C92.7607193,46.6708056 94.3754124,34.2560925 94.7982259,26.5140613 C95.190415,19.2857287 96.2914095,11.2221419 94.2124119,4.09407936 M125.868103,10.4881456 C129.612175,13.523907 132.072002,19.1449555 131.307381,23.9396408 C130.442984,29.3561978 125.037294,30.8390087 120.331518,30.1568762 C117.910219,21.2496381 112.543056,11.405394 104.760522,5.6282601 C112.097521,5.91573376 120.035153,5.75866053 125.868103,10.4881456 M106.889902,58.2556977 C112.310904,57.9909454 116.448648,53.514852 118.902547,49.0896346 C121.678989,44.0830487 122.037096,38.7346555 121.057117,33.3497108 C125.394413,33.7359726 130.017207,32.7989666 132.582737,28.8973266 C135.870408,23.8971619 134.625676,18.1684342 132.016186,13.1746907 C126.064691,1.79330219 111.352658,3.12694289 100.551651,2.80736306 C100.403962,2.80341153 100.27455,2.82465099 100.155016,2.85576928 C97.8804177,1.78441125 95.4492401,1.05239069 92.8654348,0.761459443 C92.4925093,0.419652272 91.9328742,0.428049269 91.4804242,0.658719716 C89.8430098,0.711571403 89.8104097,3.01333646 91.2255506,3.5487685 C94.1294298,14.0958906 90.9247406,26.1366904 91.0452622,36.8576797 C91.1544231,46.5631264 94.9128202,58.8400299 106.889902,58.2556977" id="Fill-27" fill="#40464A"></path>
                        <path d="M62.5548442,57.7262424 C65.7926274,59.2520261 70.9375169,59.671382 74.0765119,57.620539 C79.3285865,54.1896248 71.1474418,45.1346984 68.6308124,42.4199987 C63.8544029,37.2647365 58.4818067,33.7809707 52.6083543,30.1095072 C52.2872926,36.6808983 52.9511493,43.9769007 55.7592039,49.918517 C57.2430027,53.0589939 59.3027366,56.1935435 62.5548442,57.7262424 L0.65234375,111.039062" id="Fill-29" fill="#E9CC26"></path>
                        <path d="M52.6085025,30.1094084 C58.4819549,33.7813658 63.8545511,37.2646377 68.6309606,42.4198999 C71.14759,45.1345997 79.3287347,54.189526 74.0766601,57.6204402 C70.9371711,59.6712833 65.7922817,59.2519273 62.5549924,57.7261436 C59.3028848,56.1934447 57.2431509,53.0588951 55.7593521,49.9189122 C52.9508036,43.976802 52.2874408,36.6807995 52.6085025,30.1094084 M75.3085489,60.9604693 C82.9117827,57.6579797 77.6547687,48.3101463 74.3542549,43.9723565 C68.4447448,36.2026646 61.0835421,31.7972048 52.8485578,26.8691555 C51.8878425,26.2942082 50.9952912,26.9555951 50.7735117,27.7878857 C50.3887316,27.9874379 50.0810064,28.3554239 50.0163001,28.8854226 C48.9938422,37.2468559 49.8271207,46.2731337 53.8917612,53.771652 C58.0947051,61.5280075 67.2434803,64.4659685 75.3085489,60.9604693" id="Fill-31" fill="#40464A"></path>
                        <path d="M82.0818631,81.5323215 C81.9099716,85.4324797 81.4980248,89.6003538 82.9106961,93.1962443 C83.4989798,94.6958492 87.2983739,102.113361 89.8634096,99.2317093 C95.1540116,93.2900931 87.2183555,85.5505316 82.0818631,81.5323215 Z" id="Fill-33" fill="#1C9AC0"></path>
                        <path d="M82.0819125,81.5323215 C87.217911,85.5505316 95.154061,93.2900931 89.8634589,99.2317093 C87.2984233,102.113361 83.4990292,94.6958492 82.9107455,93.1962443 C81.4980742,89.6003538 81.910021,85.4324797 82.0819125,81.5323215 M81.8196298,97.6580133 C83.3631954,100.345546 87.3443599,104.135556 90.7431679,102.152382 C94.534659,99.9400207 95.0779941,94.2982267 93.4539161,90.594657 C91.1570904,85.3569067 86.5708483,81.1890326 81.8290147,78.1409226 C81.50005,77.929022 81.1849156,77.8880249 80.9088026,77.9561887 C80.2093821,77.9107461 79.4684706,78.3404748 79.4442675,79.251796 C79.2689185,85.7382291 78.4460128,91.7825851 81.8196298,97.6580133" id="Fill-35" fill="#40464A"></path>
                    </g>
                </g>
            </g>
        </g>
    </g>
</svg>